<svg width="150px" height="90px" xmlns="http://www.w3.org/2000/svg" viewBox="73.31499023437502 24.200000000000003 353.37001953124997 101.6" style="background: rgba(0, 0, 0, 0);" preserveAspectRatio="xMidYMid"><defs><filter id="editing-hole" x="-100%" y="-100%" width="300%" height="300%"><feFlood flood-color="white" result="white"></feFlood><feMorphology operator="dilate" radius="2" in="SourceGraphic" result="erode"></feMorphology><feGaussianBlur in="erode" stdDeviation="4" result="blur"></feGaussianBlur><feOffset in="blur" dx="2" dy="2" result="offset"></feOffset><feComposite operator="atop" in="offset" in2="black" result="merge"></feComposite><feComposite operator="in" in="merge" in2="SourceGraphic" result="inner-shadow"></feComposite></filter></defs><g filter="url(#editing-hole)"><g transform="translate(127.47499990463257, 93.07500076293945)"><path d="M13.95 0L3.90-35L6.90-35L15.85-3.45L24.80-35L27.80-35L17.80 0L13.95 0ZM35.05-32.15L35.05-32.15Q34.40-32.15 33.88-32.68L33.88-32.68L33.88-32.68Q33.35-33.20 33.35-33.85L33.35-33.85L33.35-33.85Q33.35-34.50 33.85-35L33.85-35L33.85-35Q34.35-35.50 35.05-35.50L35.05-35.50L35.05-35.50Q35.75-35.50 36.23-35.02L36.23-35.02L36.23-35.02Q36.70-34.55 36.70-33.85L36.70-33.85L36.70-33.85Q36.70-33.15 36.20-32.65L36.20-32.65L36.20-32.65Q35.70-32.15 35.05-32.15L35.05-32.15ZM33.60 0L33.60-25.05L36.40-25.05L36.40 0L33.60 0ZM44.60-17.30L44.60-17.30Q44.60-22.55 48.85-24.50L48.85-24.50L48.85-24.50Q50.90-25.45 53.75-25.45L53.75-25.45L53.75-25.45Q55.60-25.45 57.33-25L57.33-25L57.33-25Q59.05-24.55 60.25-23.70L60.25-23.70L60.25-35L63.05-35L63.05 0L60.30 0.25L60.30 0.25Q57.05 0.60 55.20 0.60L55.20 0.60L55.20 0.60Q53.35 0.60 51.73 0.25L51.73 0.25L51.73 0.25Q50.10-0.10 48.50-0.90L48.50-0.90L48.50-0.90Q46.70-1.80 45.65-3.55L45.65-3.55L45.65-3.55Q44.60-5.30 44.60-7.85L44.60-7.85L44.60-17.30ZM60.25-21.25L60.25-21.25Q58.90-22 57.15-22.48L57.15-22.48L57.15-22.48Q55.40-22.95 53.70-22.95L53.70-22.95L53.70-22.95Q50.90-22.95 49.13-21.58L49.13-21.58L49.13-21.58Q47.35-20.20 47.35-17.15L47.35-17.15L47.35-7.80L47.35-7.80Q47.35-1.95 55.40-1.95L55.40-1.95L55.40-1.95Q57.30-1.95 60.25-2.40L60.25-2.40L60.25-21.25ZM83.20-1.75L83.20-1.75Q81.40-0.60 79.10 0L79.10 0L79.10 0Q76.80 0.60 74.50 0.60L74.50 0.60L74.50 0.60Q70.80 0.60 68.63-1.23L68.63-1.23L68.63-1.23Q66.45-3.05 66.45-6.70L66.45-6.70L66.45-16.95L66.45-16.95Q66.45-21 68.98-23.25L68.98-23.25L68.98-23.25Q71.50-25.50 75.65-25.50L75.65-25.50L75.65-25.50Q79.80-25.50 82.13-23.28L82.13-23.28L82.13-23.28Q84.45-21.05 84.45-17.10L84.45-17.10L84.45-10.60L69.25-9.75L69.25-6.70L69.25-6.70Q69.25-4.30 70.80-3.10L70.80-3.10L70.80-3.10Q72.35-1.90 74.85-1.90L74.85-1.90L74.85-1.90Q78.35-1.90 82.10-3.90L82.10-3.90L83.20-1.75ZM81.65-17.45L81.65-17.45Q81.65-20.55 79.70-21.83L79.70-21.83L79.70-21.83Q77.75-23.10 75.60-23.10L75.60-23.10L75.60-23.10Q72.85-23.10 71.05-21.60L71.05-21.60L71.05-21.60Q69.25-20.10 69.25-16.90L69.25-16.90L69.25-12.50L81.65-13.10L81.65-17.45ZM108.95-9.20L108.95-9.20Q108.95-5 106.65-2.25L106.65-2.25L106.65-2.25Q104.35 0.50 99.70 0.50L99.70 0.50L99.70 0.50Q95.05 0.50 92.68-2.27L92.68-2.27L92.68-2.27Q90.30-5.05 90.30-9.20L90.30-9.20L90.30-15.80L90.30-15.80Q90.30-20.55 92.73-23.08L92.73-23.08L92.73-23.08Q95.15-25.60 99.70-25.60L99.70-25.60L99.70-25.60Q104.05-25.60 106.50-22.98L106.50-22.98L106.50-22.98Q108.95-20.35 108.95-15.80L108.95-15.80L108.95-9.20ZM106.15-15.80L106.15-15.80Q106.15-19.55 104.43-21.30L104.43-21.30L104.43-21.30Q102.70-23.05 99.70-23.05L99.70-23.05L99.70-23.05Q96.60-23.05 94.85-21.30L94.85-21.30L94.85-21.30Q93.10-19.55 93.10-15.80L93.10-15.80L93.10-8.70L93.10-8.70Q93.10-5.70 94.88-3.85L94.88-3.85L94.88-3.85Q96.65-2 99.70-2L99.70-2L99.70-2Q102.80-2 104.48-3.83L104.48-3.83L104.48-3.83Q106.15-5.65 106.15-8.70L106.15-8.70L106.15-15.80ZM147.30 0L143.05-12.40L143.05-12.40Q142.15-12.25 141.05-12.25L141.05-12.25L131.20-12.25L131.20 0L128.40 0L128.40-35L140.70-35L140.70-35Q145.45-35 147.78-32.10L147.78-32.10L147.78-32.10Q150.10-29.20 150.10-24.30L150.10-24.30L150.10-24.30Q150.10-20.55 149.28-17.65L149.28-17.65L149.28-17.65Q148.45-14.75 145.70-13.25L145.70-13.25L150.15 0L147.30 0ZM141.10-15L141.10-15Q143.90-15 145.28-16.50L145.28-16.50L145.28-16.50Q146.65-18 146.98-19.90L146.98-19.90L146.98-19.90Q147.30-21.80 147.30-24.15L147.30-24.15L147.30-24.15Q147.30-28.25 145.60-30.30L145.60-30.30L145.60-30.30Q143.90-32.35 140.90-32.35L140.90-32.35L131.20-32.35L131.20-15L141.10-15ZM171.20-1.75L171.20-1.75Q169.40-0.60 167.10 0L167.10 0L167.10 0Q164.80 0.60 162.50 0.60L162.50 0.60L162.50 0.60Q158.80 0.60 156.63-1.23L156.63-1.23L156.63-1.23Q154.45-3.05 154.45-6.70L154.45-6.70L154.45-16.95L154.45-16.95Q154.45-21 156.98-23.25L156.98-23.25L156.98-23.25Q159.50-25.50 163.65-25.50L163.65-25.50L163.65-25.50Q167.80-25.50 170.13-23.28L170.13-23.28L170.13-23.28Q172.45-21.05 172.45-17.10L172.45-17.10L172.45-10.60L157.25-9.75L157.25-6.70L157.25-6.70Q157.25-4.30 158.80-3.10L158.80-3.10L158.80-3.10Q160.35-1.90 162.85-1.90L162.85-1.90L162.85-1.90Q166.35-1.90 170.10-3.90L170.10-3.90L171.20-1.75ZM169.65-17.45L169.65-17.45Q169.65-20.55 167.70-21.83L167.70-21.83L167.70-21.83Q165.75-23.10 163.60-23.10L163.60-23.10L163.60-23.10Q160.85-23.10 159.05-21.60L159.05-21.60L159.05-21.60Q157.25-20.10 157.25-16.90L157.25-16.90L157.25-12.50L169.65-13.10L169.65-17.45ZM193.30 0L193.30-17.15L193.30-17.15Q193.30-20.20 191.53-21.58L191.53-21.58L191.53-21.58Q189.75-22.95 186.95-22.95L186.95-22.95L186.95-22.95Q185.25-22.95 183.50-22.48L183.50-22.48L183.50-22.48Q181.75-22 180.40-21.25L180.40-21.25L180.40 0L177.60 0L177.60-25.05L180.40-25.05L180.20-23.35L180.20-23.35Q181.40-24.40 183.25-24.93L183.25-24.93L183.25-24.93Q185.10-25.45 187.10-25.45L187.10-25.45L187.10-25.45Q189.85-25.45 191.80-24.55L191.80-24.55L191.80-24.55Q193.80-23.65 194.93-21.85L194.93-21.85L194.93-21.85Q196.05-20.05 196.05-17.30L196.05-17.30L196.05 0L193.30 0ZM206.90 0.65L206.90 0.65Q204.10-0.15 202.85-1.90L202.85-1.90L202.85-1.90Q201.60-3.65 201.60-6.60L201.60-6.60L201.60-35L204.40-35L204.40-25.05L210.40-25.05L209.20-22.40L204.40-22.40L204.40-6.60L204.40-6.60Q204.40-2.60 207.70-1.50L207.70-1.50L206.90 0.65ZM232.65 0L232.65 0Q227.25 0.55 224.85 0.55L224.85 0.55L224.85 0.55Q219.60 0.55 216.50-1.40L216.50-1.40L216.50-1.40Q213.40-3.35 213.40-8.45L213.40-8.45L213.40-12.60L213.40-12.60Q213.40-17.55 216.85-19.25L216.85-19.25L216.85-19.25Q218.50-20.10 221.05-20.10L221.05-20.10L221.05-20.10Q223.40-20.10 225.80-19.33L225.80-19.33L225.80-19.33Q228.20-18.55 229.85-17.30L229.85-17.30L229.85-17.30Q229.85-20.05 228.25-21.68L228.25-21.68L228.25-21.68Q226.65-23.30 222.10-23.30L222.10-23.30L222.25-25.45L222.25-25.45Q227.05-25.45 229.33-23.93L229.33-23.93L229.33-23.93Q231.60-22.40 232.13-20.30L232.13-20.30L232.13-20.30Q232.65-18.20 232.65-14.90L232.65-14.90L232.65 0ZM229.85-15.15L229.85-15.15Q227.80-16.10 225.48-16.80L225.48-16.80L225.48-16.80Q223.15-17.50 221.20-17.50L221.20-17.50L221.20-17.50Q216.15-17.50 216.15-12.45L216.15-12.45L216.15-8.10L216.15-8.10Q216.15-4.85 218.40-3.38L218.40-3.38L218.40-3.38Q220.65-1.90 224.80-1.90L224.80-1.90L224.80-1.90Q226.95-1.90 229.85-2.30L229.85-2.30L229.85-15.15ZM238.35 0L238.35-35L241.15-35L241.15 0L238.35 0Z" fill="black"></path></g></g><style>text {
  font-size: 64px;
  font-family: Arial Black;
  dominant-baseline: central;
  text-anchor: middle;
  font-weight: bold;
}</style></svg>