<svg width="372.197509765625px" height="124.422265625px" xmlns="http://www.w3.org/2000/svg" viewBox="63.9012451171875 12.788867187500003 372.197509765625 124.422265625" style="background: rgba(29, 14, 11, 0);" preserveAspectRatio="xMidYMid"><defs><linearGradient id="editing-gradient-gradient" x1="0" x2="1" y1="0.5" y2="0.5" gradientUnits="objectBoundingBox"><stop offset="0" stop-color="#774023"></stop><stop offset="1" stop-color="#d88c51"></stop></linearGradient></defs><g><g transform="translate(119.75999879837036, 104.43999862670898)"><path d="M29.25 0L24.13-15.68L9.54-15.68L4.54 0L0.77 0L15.10-44.80L18.50-44.80L33.09 0L29.25 0ZM16.77-39.23L10.56-19.20L23.17-19.20L16.77-39.23ZM38.72 0L38.72-44.80L42.30-44.80L42.30 0L38.72 0ZM52.42 0L52.42-44.80L56-44.80L56 0L52.42 0ZM64-22.91L64-26.43L84.48-26.43L84.48-22.91L64-22.91ZM91.26 0L91.26-32.06L94.85-32.06L94.66-29.82L94.66-29.82Q97.66-32.64 102.53-32.64L102.53-32.64L102.53-32.64Q104.26-32.64 107.26-32.06L107.26-32.06L106.30-28.80L106.30-28.80Q104.26-29.44 102.02-29.44L102.02-29.44L102.02-29.44Q99.07-29.44 96.96-28.35L96.96-28.35L96.96-28.35Q94.85-27.26 94.85-25.09L94.85-25.09L94.85 0L91.26 0ZM132.35-2.24L132.35-2.24Q130.05-0.77 127.10 0L127.10 0L127.10 0Q124.16 0.77 121.22 0.77L121.22 0.77L121.22 0.77Q116.48 0.77 113.70-1.57L113.70-1.57L113.70-1.57Q110.91-3.90 110.91-8.58L110.91-8.58L110.91-21.70L110.91-21.70Q110.91-26.88 114.14-29.76L114.14-29.76L114.14-29.76Q117.38-32.64 122.69-32.64L122.69-32.64L122.69-32.64Q128-32.64 130.98-29.79L130.98-29.79L130.98-29.79Q133.95-26.94 133.95-21.89L133.95-21.89L133.95-13.57L114.50-12.48L114.50-8.58L114.50-8.58Q114.50-5.50 116.48-3.97L116.48-3.97L116.48-3.97Q118.46-2.43 121.66-2.43L121.66-2.43L121.66-2.43Q126.14-2.43 130.94-4.99L130.94-4.99L132.35-2.24ZM130.37-22.34L130.37-22.34Q130.37-26.30 127.87-27.94L127.87-27.94L127.87-27.94Q125.38-29.57 122.62-29.57L122.62-29.57L122.62-29.57Q119.10-29.57 116.80-27.65L116.80-27.65L116.80-27.65Q114.50-25.73 114.50-21.63L114.50-21.63L114.50-16L130.37-16.77L130.37-22.34ZM159.36-0.38L159.36-0.38Q155.39 0.64 151.68 0.64L151.68 0.64L151.68 0.64Q148.22 0.64 145.92-0.13L145.92-0.13L145.92-0.13Q142.14-1.41 140.45-4.06L140.45-4.06L140.45-4.06Q138.75-6.72 138.75-11.52L138.75-11.52L138.75-19.71L138.75-19.71Q138.75-26.05 142.08-29.34L142.08-29.34L142.08-29.34Q145.41-32.64 150.66-32.64L150.66-32.64L150.66-32.64Q154.82-32.64 159.23-30.59L159.23-30.59L158.21-27.97L158.21-27.97Q154.56-29.44 151.17-29.44L151.17-29.44L151.17-29.44Q147.20-29.44 144.77-27.17L144.77-27.17L144.77-27.17Q142.34-24.90 142.34-20.10L142.34-20.10L142.34-10.82L142.34-10.82Q142.34-6.40 144.99-4.42L144.99-4.42L144.99-4.42Q147.65-2.43 152.06-2.43L152.06-2.43L152.06-2.43Q154.94-2.43 158.59-3.26L158.59-3.26L159.36-0.38ZM168.13-41.15L168.13-41.15Q167.30-41.15 166.62-41.82L166.62-41.82L166.62-41.82Q165.95-42.50 165.95-43.33L165.95-43.33L165.95-43.33Q165.95-44.16 166.59-44.80L166.59-44.80L166.59-44.80Q167.23-45.44 168.13-45.44L168.13-45.44L168.13-45.44Q169.02-45.44 169.63-44.83L169.63-44.83L169.63-44.83Q170.24-44.22 170.24-43.33L170.24-43.33L170.24-43.33Q170.24-42.43 169.60-41.79L169.60-41.79L169.60-41.79Q168.96-41.15 168.13-41.15L168.13-41.15ZM166.27 0L166.27-32.06L169.86-32.06L169.86 0L166.27 0ZM180.35 13.44L180.35-32.06L183.94-32.06L183.62-28.80L183.62-28.80Q185.34-30.66 187.68-31.62L187.68-31.62L187.68-31.62Q190.02-32.58 192.32-32.58L192.32-32.58L192.32-32.58Q198.27-32.58 201.38-29.12L201.38-29.12L201.38-29.12Q204.48-25.66 204.48-20.16L204.48-20.16L204.48-11.26L204.48-11.26Q204.48-5.44 201.22-2.34L201.22-2.34L201.22-2.34Q197.95 0.77 192.58 0.77L192.58 0.77L192.58 0.77Q189.82 0.77 187.71 0L187.71 0L187.71 0Q185.60-0.77 183.94-2.69L183.94-2.69L183.94 12.03L180.35 13.44ZM200.90-20.42L200.90-20.42Q200.90-25.09 198.43-27.20L198.43-27.20L198.43-27.20Q195.97-29.31 192.58-29.31L192.58-29.31L192.58-29.31Q189.12-29.31 186.62-27.23L186.62-27.23L186.62-27.23Q184.13-25.15 183.94-20.74L183.94-20.74L183.94-10.62L183.94-10.62Q183.94-6.46 186.30-4.48L186.30-4.48L186.30-4.48Q188.67-2.50 192.58-2.50L192.58-2.50L192.58-2.50Q196.10-2.50 198.50-4.58L198.50-4.58L198.50-4.58Q200.90-6.66 200.90-10.62L200.90-10.62L200.90-20.42ZM230.27-2.24L230.27-2.24Q227.97-0.77 225.02 0L225.02 0L225.02 0Q222.08 0.77 219.14 0.77L219.14 0.77L219.14 0.77Q214.40 0.77 211.62-1.57L211.62-1.57L211.62-1.57Q208.83-3.90 208.83-8.58L208.83-8.58L208.83-21.70L208.83-21.70Q208.83-26.88 212.06-29.76L212.06-29.76L212.06-29.76Q215.30-32.64 220.61-32.64L220.61-32.64L220.61-32.64Q225.92-32.64 228.90-29.79L228.90-29.79L228.90-29.79Q231.87-26.94 231.87-21.89L231.87-21.89L231.87-13.57L212.42-12.48L212.42-8.58L212.42-8.58Q212.42-5.50 214.40-3.97L214.40-3.97L214.40-3.97Q216.38-2.43 219.58-2.43L219.58-2.43L219.58-2.43Q224.06-2.43 228.86-4.99L228.86-4.99L230.27-2.24ZM228.29-22.34L228.29-22.34Q228.29-26.30 225.79-27.94L225.79-27.94L225.79-27.94Q223.30-29.57 220.54-29.57L220.54-29.57L220.54-29.57Q217.02-29.57 214.72-27.65L214.72-27.65L214.72-27.65Q212.42-25.73 212.42-21.63L212.42-21.63L212.42-16L228.29-16.77L228.29-22.34ZM240.06-8.13L240.06-8.13Q240.45-5.25 242.94-3.81L242.94-3.81L242.94-3.81Q245.44-2.37 248.51-2.37L248.51-2.37L248.51-2.37Q251.39-2.37 253.76-3.68L253.76-3.68L253.76-3.68Q256.13-4.99 256.13-7.94L256.13-7.94L256.13-7.94Q256.13-9.86 255.01-11.10L255.01-11.10L255.01-11.10Q253.89-12.35 252.22-13.12L252.22-13.12L252.22-13.12Q250.56-13.89 247.74-14.78L247.74-14.78L247.74-14.78Q244.61-15.81 242.62-16.70L242.62-16.70L242.62-16.70Q240.64-17.60 239.17-19.23L239.17-19.23L239.17-19.23Q237.70-20.86 237.44-23.36L237.44-23.36L237.38-24.13L237.38-24.13Q237.38-26.24 238.56-28.26L238.56-28.26L238.56-28.26Q239.74-30.27 242.21-31.55L242.21-31.55L242.21-31.55Q244.67-32.83 248.38-32.83L248.38-32.83L248.38-32.83Q250.43-32.83 252.00-32.42L252.00-32.42L252.00-32.42Q253.57-32 254.46-31.55L254.46-31.55L254.46-31.55Q255.36-31.10 255.55-30.98L255.55-30.98L254.34-28.03L254.34-28.03Q254.14-28.16 253.41-28.54L253.41-28.54L253.41-28.54Q252.67-28.93 251.33-29.31L251.33-29.31L251.33-29.31Q249.98-29.70 248.38-29.70L248.38-29.70L248.38-29.70Q245.31-29.70 243.14-28.26L243.14-28.26L243.14-28.26Q240.96-26.82 240.96-24.26L240.96-24.26L240.96-24.26Q240.96-21.82 242.94-20.54L242.94-20.54L242.94-20.54Q244.93-19.26 249.02-17.98L249.02-17.98L249.02-17.98Q252.48-16.83 254.59-15.81L254.59-15.81L254.59-15.81Q256.70-14.78 258.21-12.90L258.21-12.90L258.21-12.90Q259.71-11.01 259.71-8L259.71-8L259.71-8Q259.71-4.16 256.86-1.60L256.86-1.60L256.86-1.60Q254.02 0.96 248.51 0.96L248.51 0.96L248.51 0.96Q244.86 0.96 242.21-0.29L242.21-0.29L242.21-0.29Q239.55-1.54 238.18-3.58L238.18-3.58L238.18-3.58Q236.80-5.63 236.67-8.13L236.67-8.13L240.06-8.13Z" fill="url(#editing-gradient-gradient)"></path></g></g><style>text {
  font-size: 64px;
  font-family: Arial Black;
  dominant-baseline: central;
  text-anchor: middle;
}</style></svg>